<?xml version="1.0" encoding="UTF-8" standalone="no"?>
<svg
   t="1689679029970"
   class="icon"
   viewBox="0 0 1024 1024"
   version="1.1"
   p-id="2534"
   width="200"
   height="200"
   id="svg744"
   sodipodi:docname="矩形.svg"
   inkscape:version="1.2.2 (732a01da63, 2022-12-09)"
   xmlns:inkscape="http://www.inkscape.org/namespaces/inkscape"
   xmlns:sodipodi="http://sodipodi.sourceforge.net/DTD/sodipodi-0.dtd"
   xmlns="http://www.w3.org/2000/svg"
   xmlns:svg="http://www.w3.org/2000/svg">
  <defs
     id="defs748" />
  <sodipodi:namedview
     id="namedview746"
     pagecolor="#ffffff"
     bordercolor="#000000"
     borderopacity="0.25"
     inkscape:showpageshadow="2"
     inkscape:pageopacity="0.0"
     inkscape:pagecheckerboard="0"
     inkscape:deskcolor="#d1d1d1"
     showgrid="false"
     inkscape:zoom="1.6122035"
     inkscape:cx="-5.2722874"
     inkscape:cy="392.01007"
     inkscape:window-width="3840"
     inkscape:window-height="2068"
     inkscape:window-x="-12"
     inkscape:window-y="-12"
     inkscape:window-maximized="1"
     inkscape:current-layer="svg744" />
  <path
     d="M872 872H152c-43.99999969 0-79.99999969-36-79.99999969-79.99999969V231.99999969c0-43.99999969 36-79.99999969 79.99999969-79.99999969h720c43.99999969 0 79.99999969 36 79.99999969 79.99999969v560.00000062c0 43.99999969-36 79.99999969-79.99999969 79.99999969zM152 231.99999969v560.00000062h720V231.99999969H152z"
     fill="#000000"
     p-id="2535"
     id="path742" />
  <rect
     style="fill:#000000;stroke-width:5.12"
     id="rect750"
     width="68.491234"
     height="833.1228"
     x="750.44141"
     y="-459.89484"
     transform="rotate(45)" />
  <rect
     style="fill:#000000;stroke-width:3.12264"
     id="rect750-6"
     width="68.491234"
     height="309.89474"
     x="355.58105"
     y="-100.16515"
     transform="rotate(45)" />
  <rect
     style="fill:#000000;stroke-width:5.12"
     id="rect750-6-6"
     width="68.491234"
     height="833.1228"
     x="616.18549"
     y="-374.67291"
     transform="rotate(45)" />
  <rect
     style="fill:#000000;stroke-width:4.36378"
     id="rect750-6-87"
     width="68.491234"
     height="605.19299"
     x="486.28033"
     y="-255.45206"
     transform="rotate(45)" />
  <rect
     style="fill:#000000;stroke-width:3.09423"
     id="rect750-4"
     width="68.491234"
     height="304.2807"
     x="1025.2732"
     y="-212.08315"
     transform="rotate(45)" />
  <rect
     style="fill:#000000;stroke-width:4.31083"
     id="rect750-5"
     width="68.491234"
     height="590.5965"
     x="889.11182"
     y="-356.43201"
     transform="rotate(45)" />
</svg>
