<?xml version="1.0" encoding="UTF-8" standalone="no"?>
<svg
   t="1689682230730"
   class="icon"
   viewBox="0 0 1024 1024"
   version="1.1"
   p-id="16078"
   width="200"
   height="200"
   id="svg463"
   sodipodi:docname="箭头填充.svg"
   inkscape:version="1.2.2 (732a01da63, 2022-12-09)"
   xmlns:inkscape="http://www.inkscape.org/namespaces/inkscape"
   xmlns:sodipodi="http://sodipodi.sourceforge.net/DTD/sodipodi-0.dtd"
   xmlns="http://www.w3.org/2000/svg"
   xmlns:svg="http://www.w3.org/2000/svg">
  <defs
     id="defs467" />
  <sodipodi:namedview
     id="namedview465"
     pagecolor="#ffffff"
     bordercolor="#000000"
     borderopacity="0.25"
     inkscape:showpageshadow="2"
     inkscape:pageopacity="0.0"
     inkscape:pagecheckerboard="0"
     inkscape:deskcolor="#d1d1d1"
     showgrid="false"
     inkscape:zoom="3.6309934"
     inkscape:cx="290.41639"
     inkscape:cy="253.64959"
     inkscape:window-width="3840"
     inkscape:window-height="2068"
     inkscape:window-x="-12"
     inkscape:window-y="-12"
     inkscape:window-maximized="1"
     inkscape:current-layer="svg463" />
  <path
     style="stroke-width:3.49857"
     d="M 53.175395,978.19414 C 39.620155,964.6389 37.641282,941.54308 52.001595,930.28058 L 619.43055,485.25753 c 9.67845,-7.59062 20.02526,-14.21284 31.90466,-15.52806 15.06137,-1.66877 29.01717,4.22995 40.3263,14.00778 l 88.51778,76.53208 c 3.80502,3.2898 11.99253,1.31522 13.65423,0.82732 12.65722,-3.70524 26.764,-15.88869 29.22473,-32.01072 l 91.70056,-337.3611 c 3.71232,-24.28912 -1.9304,-45.3609 -15.88868,-59.31919 -13.95829,-13.95829 -35.023,-19.60807 -59.31919,-15.88869 l -351.2701,109.51843 c -16.11496,2.4678 -28.30549,16.56751 -32.01072,29.22472 -0.48084,1.65463 -2.79234,10.16153 0.82731,13.65423 l 100.50348,96.97828 c 10.75824,10.38089 15.67656,25.26493 14.00779,40.3263 -1.31522,11.8794 -7.62136,22.48266 -15.52807,31.90466 L 102.16332,979.03223 c -11.731488,13.97978 -34.358315,12.38144 -47.913545,-1.1738 -13.55524,-13.55523 -12.168259,-33.34702 -1.1738,-47.91355 L 497.12914,398.90036 410.3506,315.64702 c -21.41744,-20.5474 -28.17113,-51.77436 -19.21916,-82.34966 11.27835,-38.5161 44.92249,-68.37015 83.71437,-74.29571 L 826.11591,49.483225 c 45.92658,-7.02157 89.47729,6.16597 119.47983,36.16851 30.00254,30.002545 43.19008,73.553255 36.16851,119.479835 l -91.70056,337.3611 c -5.92556,38.79188 -35.77961,72.43602 -74.29571,83.71437 -30.5753,8.95197 -59.6129,-0.12636 -82.34966,-19.21916 L 658.63255,544.18781 101.06773,979.34672 c -12.883485,12.92592 -34.337105,12.40266 -47.892335,-1.15258 z"
     id="path180" />
  <path
     style="stroke-width:4.10886"
     d="M 460.0393,181.56502 H 933.827 v 56.40329 H 460.0393 Z"
     id="path170" />
  <path
     style="stroke-width:4.10886"
     d="m 461.09691,296.11731 h 473.7877 v 56.40329 h -473.7877 z"
     id="path170-9" />
  <path
     style="stroke-width:3.71722"
     d="m 501.98934,409.66276 h 387.77267 v 56.40329 H 501.98934 Z"
     id="path170-4" />
  <path
     style="stroke-width:2.53604"
     d="m 410.33397,523.14058 h 180.49058 v 56.40329 H 410.33397 Z"
     id="path170-1" />
</svg>
